<svg width="15" height="20" viewBox="0 0 15 20" fill="none" xmlns="http://www.w3.org/2000/svg">
<path d="M2.50049 5.49951C2.50049 2.74251 4.74349 0.499512 7.50049 0.499512C10.2575 0.499512 12.5005 2.74251 12.5005 5.49951C12.5005 8.25651 10.2575 10.4995 7.50049 10.4995C4.74349 10.4995 2.50049 8.25651 2.50049 5.49951ZM11.6175 11.5706C11.0585 11.4286 10.4505 11.5086 9.94751 11.7886C8.42951 12.6326 6.57147 12.6326 5.05347 11.7886C4.55147 11.5096 3.94248 11.4306 3.38348 11.5706C1.39148 12.0736 0.000488281 13.8816 0.000488281 15.9666V16.9775C0.000488281 17.6155 0.170469 18.2394 0.493469 18.7834C0.756469 19.2254 1.2495 19.5005 1.7785 19.5005H13.2215C13.7505 19.5005 14.2435 19.2265 14.5065 18.7825C14.8295 18.2395 14.9995 17.6155 14.9995 16.9775V15.9666C15.0005 13.8816 13.6095 12.0736 11.6175 11.5706Z" fill="#41416E"/>
</svg>
